<mxfile host="app.diagrams.net" agent="Mozilla/5.0 (Windows NT 10.0; Win64; x64) AppleWebKit/537.36 (KHTML, like Gecko) Chrome/132.0.0.0 Safari/537.36 OPR/117.0.0.0" version="26.1.1">
  <diagram name="Seite-1" id="CvotCSTAV_f54BurlSNu">
    <mxGraphModel dx="3602" dy="1832" grid="1" gridSize="10" guides="1" tooltips="1" connect="1" arrows="1" fold="1" page="1" pageScale="1" pageWidth="1169" pageHeight="827" math="0" shadow="0">
      <root>
        <mxCell id="0" />
        <mxCell id="1" parent="0" />
        <mxCell id="OL45vC3tiFYDZ9IFijqp-1" value="&lt;p style=&quot;margin:0px;margin-top:4px;text-align:center;&quot;&gt;&lt;b&gt;Klasse: DASHBOARD&lt;/b&gt;&lt;/p&gt;&lt;hr size=&quot;1&quot; style=&quot;border-style:solid;&quot;&gt;&lt;p style=&quot;margin:0px;margin-left:4px;&quot;&gt;&amp;nbsp;- root : Tk&amp;nbsp;&lt;/p&gt;&lt;p style=&quot;margin:0px;margin-left:4px;&quot;&gt;&amp;nbsp;- frames : Dict&lt;/p&gt;&lt;p style=&quot;margin:0px;margin-left:4px;&quot;&gt;&amp;nbsp;- datenbank : datenbank&amp;nbsp;&lt;/p&gt;&lt;p style=&quot;margin:0px;margin-left:4px;&quot;&gt;&amp;nbsp;- visualisierung : visualisierung&lt;/p&gt;&lt;hr size=&quot;1&quot; style=&quot;border-style:solid;&quot;&gt;&lt;p style=&quot;margin:0px;margin-left:4px;&quot;&gt;+ __init__(datenbank: datenbank, visualisierung: visualisierung)&lt;br&gt; + erstelle_main()&lt;br&gt; + wechsel_ansicht(ansicht: String)&lt;br&gt; + zeige_lernzeit_formular()&lt;br&gt; + zeige_pruefung_formular()&lt;br&gt; + handle_lernzeit_eingabe(fach: String, dauer: float)&lt;br&gt; + handle_pruefung_eingabe(modul: String, datum: String, notiz: String)&lt;br&gt; + zeige_statistik_ansicht()&lt;br&gt; + lade_einstellungen()&lt;/p&gt;" style="verticalAlign=top;align=left;overflow=fill;html=1;whiteSpace=wrap;" vertex="1" parent="1">
          <mxGeometry x="825" y="-120" width="390" height="230" as="geometry" />
        </mxCell>
        <mxCell id="OL45vC3tiFYDZ9IFijqp-2" value="&lt;p style=&quot;margin:0px;margin-top:4px;text-align:center;&quot;&gt;&lt;b&gt;main.py&lt;/b&gt;&lt;/p&gt;&lt;hr size=&quot;1&quot; style=&quot;border-style:solid;&quot;&gt;&lt;p style=&quot;margin:0px;margin-left:4px;&quot;&gt;- DATEI_LERNZEIT : String&amp;nbsp;&lt;/p&gt;&lt;p style=&quot;margin:0px;margin-left:4px;&quot;&gt;- DATEI_PRUEFUNG : String&lt;/p&gt;&lt;hr size=&quot;1&quot; style=&quot;border-style:solid;&quot;&gt;&lt;p style=&quot;margin:0px;margin-left:4px;&quot;&gt;+ zeige_lernzeiten()&amp;nbsp;&lt;/p&gt;&lt;p style=&quot;margin:0px;margin-left:4px;&quot;&gt;+ main()&amp;nbsp;&lt;/p&gt;" style="verticalAlign=top;align=left;overflow=fill;html=1;whiteSpace=wrap;" vertex="1" parent="1">
          <mxGeometry x="-50" y="-120" width="250" height="120" as="geometry" />
        </mxCell>
        <mxCell id="OL45vC3tiFYDZ9IFijqp-3" value="&lt;p style=&quot;margin:0px;margin-top:4px;text-align:center;&quot;&gt;&lt;b&gt;fortschritt.py&lt;/b&gt;&lt;/p&gt;&lt;hr size=&quot;1&quot; style=&quot;border-style:solid;&quot;&gt;&lt;p style=&quot;margin:0px;margin-left:4px;&quot;&gt;- DATEI_LERNZEIT : String&lt;/p&gt;&lt;hr size=&quot;1&quot; style=&quot;border-style:solid;&quot;&gt;&lt;p style=&quot;margin:0px;margin-left:4px;&quot;&gt;+ berechne_fortschritt(wochenziel: float) : float&lt;br/&gt; + zeige_fortschritt()&lt;br/&gt; + berechne_durchschnitt() : float&lt;br/&gt; + berechne_fach_fortschritt(fach: String, ziel: float) : float&lt;br/&gt; + hole_lernzeiten_diese_woche() : List&lt;/p&gt;" style="verticalAlign=top;align=left;overflow=fill;html=1;whiteSpace=wrap;" vertex="1" parent="1">
          <mxGeometry x="-500" y="170" width="310" height="172" as="geometry" />
        </mxCell>
        <mxCell id="OL45vC3tiFYDZ9IFijqp-4" value="&lt;p style=&quot;margin:0px;margin-top:4px;text-align:center;&quot;&gt;&lt;b&gt;pruefung.py&lt;/b&gt;&lt;/p&gt;&lt;hr size=&quot;1&quot; style=&quot;border-style:solid;&quot;&gt;&lt;p style=&quot;margin:0px;margin-left:4px;&quot;&gt;- DATEI_PRUEFUNG : String&lt;/p&gt;&lt;hr size=&quot;1&quot; style=&quot;border-style:solid;&quot;&gt;&lt;p style=&quot;margin:0px;margin-left:4px;&quot;&gt;&amp;nbsp;+ speichere_pruefung(modul: String, datum: String, notiz: String)&lt;br&gt; + zeige_pruefungen()&lt;br&gt; + berechne_verbleibende_tage(datum: String) : int&lt;br&gt;&lt;br&gt;&lt;/p&gt;" style="verticalAlign=top;align=left;overflow=fill;html=1;whiteSpace=wrap;" vertex="1" parent="1">
          <mxGeometry x="-90" y="170" width="330" height="172" as="geometry" />
        </mxCell>
        <mxCell id="OL45vC3tiFYDZ9IFijqp-5" value="&lt;p style=&quot;margin:0px;margin-top:4px;text-align:center;&quot;&gt;&lt;b&gt;Klasse: fach&lt;/b&gt;&lt;/p&gt;&lt;hr size=&quot;1&quot; style=&quot;border-style:solid;&quot;&gt;&lt;p style=&quot;margin:0px;margin-left:4px;&quot;&gt;- id : int&lt;br&gt; - name : String&lt;br&gt; - ziel_stunden : float&lt;br&gt; - aktueller_fortschritt : float&lt;/p&gt;&lt;hr size=&quot;1&quot; style=&quot;border-style:solid;&quot;&gt;&lt;p style=&quot;margin:0px;margin-left:4px;&quot;&gt;&amp;nbsp;+ __init__(name: String, ziel_stunden: float)&lt;br/&gt; + berechne_fortschritt(gesamt_stunden: float) : float&lt;br/&gt; + get_name() : String&lt;br/&gt; + get_ziel() : float&lt;br/&gt; + get_id() : int&lt;/p&gt;" style="verticalAlign=top;align=left;overflow=fill;html=1;whiteSpace=wrap;" vertex="1" parent="1">
          <mxGeometry x="-500" y="730" width="280" height="190" as="geometry" />
        </mxCell>
        <mxCell id="OL45vC3tiFYDZ9IFijqp-6" value="&lt;p style=&quot;margin:0px;margin-top:4px;text-align:center;&quot;&gt;&lt;b&gt;Klasse: lernzeit&lt;/b&gt;&lt;/p&gt;&lt;hr size=&quot;1&quot; style=&quot;border-style:solid;&quot;&gt;&lt;p style=&quot;margin:0px;margin-left:4px;&quot;&gt;- id : int&lt;br&gt; - fach : String&lt;br&gt; - dauer : float&lt;br&gt; - datum : String&lt;br&gt;&lt;br&gt;&lt;/p&gt;&lt;hr size=&quot;1&quot; style=&quot;border-style:solid;&quot;&gt;&lt;p style=&quot;margin:0px;margin-left:4px;&quot;&gt;+ __init__(fach: String, dauer: float, datum: String)&lt;br&gt; + get_fach() : String&lt;br&gt; + get_dauer() : float&lt;br&gt; + get_datum() : String&lt;br&gt;&lt;/p&gt;" style="verticalAlign=top;align=left;overflow=fill;html=1;whiteSpace=wrap;" vertex="1" parent="1">
          <mxGeometry x="-90" y="730" width="340" height="190" as="geometry" />
        </mxCell>
        <mxCell id="OL45vC3tiFYDZ9IFijqp-7" value="&lt;p style=&quot;margin:0px;margin-top:4px;text-align:center;&quot;&gt;&lt;b&gt;Klasse: visualisierung&amp;nbsp;&lt;/b&gt;&lt;/p&gt;&lt;hr size=&quot;1&quot; style=&quot;border-style:solid;&quot;&gt;&lt;p style=&quot;margin:0px;margin-left:4px;&quot;&gt;- matplotlib_config: Dict&lt;/p&gt;&lt;hr size=&quot;1&quot; style=&quot;border-style:solid;&quot;&gt;&lt;p style=&quot;margin:0px;margin-left:4px;&quot;&gt;+ __init__(datenbank: datenbank)&lt;br&gt; + erstelle_balkendiagramm(lernzeiten: List) : Figure&lt;br&gt; + erstelle_kreisdiagramm(wochenpercent: float) : Figure&lt;br&gt; + erstelle_donut_diagramm(heute_stunden: float, ziel_stunden: float) : Figure&lt;br&gt; + erstelle_fach_fortschrittbalken(fach: String, prozent: float) : Figure&lt;br&gt; + erstelle_durchschnittsdiagramm(durchschnitt: float) : Figure&lt;br&gt; + erstelle_diagramm(figuren: Figure, dateiname: String)&lt;/p&gt;" style="verticalAlign=top;align=left;overflow=fill;html=1;whiteSpace=wrap;" vertex="1" parent="1">
          <mxGeometry x="810" y="180" width="420" height="190" as="geometry" />
        </mxCell>
        <mxCell id="OL45vC3tiFYDZ9IFijqp-8" value="&lt;p style=&quot;margin:0px;margin-top:4px;text-align:center;&quot;&gt;&lt;b&gt;Klasse: einstellungen&lt;/b&gt;&lt;/p&gt;&lt;hr size=&quot;1&quot; style=&quot;border-style:solid;&quot;&gt;&lt;p style=&quot;margin:0px;margin-left:4px;&quot;&gt;- datei_pfad : String&lt;br&gt; - config : Dict&lt;/p&gt;&lt;hr size=&quot;1&quot; style=&quot;border-style:solid;&quot;&gt;&lt;p style=&quot;margin:0px;margin-left:4px;&quot;&gt;&amp;nbsp;+ __init__()&lt;br&gt; + setze_wochenziel(stunden: float)&lt;br&gt; + setze_tagesziel(stunden: float)&lt;br&gt;+ setze_erinnerungen(aktiviert: boolean)&lt;br&gt; + hole_einstellung(name: String) : Any&lt;br&gt; + speichern()&lt;br&gt; + laden()&lt;/p&gt;" style="verticalAlign=top;align=left;overflow=fill;html=1;whiteSpace=wrap;" vertex="1" parent="1">
          <mxGeometry x="1320" y="179" width="230" height="190" as="geometry" />
        </mxCell>
        <mxCell id="OL45vC3tiFYDZ9IFijqp-9" value="&lt;p style=&quot;margin:0px;margin-top:4px;text-align:center;&quot;&gt;&lt;b&gt;Klasse: datenbank&lt;/b&gt;&lt;/p&gt;&lt;hr size=&quot;1&quot; style=&quot;border-style:solid;&quot;&gt;&lt;p style=&quot;margin:0px;margin-left:4px;&quot;&gt;- DB_DATEI : String&lt;br&gt; - connection : Connection&lt;/p&gt;&lt;hr size=&quot;1&quot; style=&quot;border-style:solid;&quot;&gt;&lt;p style=&quot;margin:0px;margin-left:4px;&quot;&gt;+ __init__()&lt;br/&gt; + initialisiere_db()&lt;br/&gt; + speichere_lernzeit(fach: String, dauer: float, datum: String, notiz: String)&lt;br/&gt; + lese_lernzeiten(von_datum: String, bis_datum: String) : List&lt;br/&gt; + lese_heutige_lernzeiten(datum: String) : List&lt;br/&gt; + lese_pruefungen() : List&lt;br/&gt; + lese_naechste_pruefungen(anzahl: int) : List&lt;br/&gt; + speichere_fortschritt(fach: String, ziel_stunden: float) : int&lt;br/&gt; + lese_faecher() : List&lt;br/&gt; + schliessen()&lt;/p&gt;" style="verticalAlign=top;align=left;overflow=fill;html=1;whiteSpace=wrap;" vertex="1" parent="1">
          <mxGeometry x="330" y="304" width="400" height="220" as="geometry" />
        </mxCell>
        <mxCell id="OL45vC3tiFYDZ9IFijqp-10" value="&lt;p style=&quot;margin:0px;margin-top:4px;text-align:center;&quot;&gt;&lt;b&gt;Klasse: pruefung&lt;/b&gt;&lt;/p&gt;&lt;hr size=&quot;1&quot; style=&quot;border-style:solid;&quot;&gt;&lt;p style=&quot;margin:0px;margin-left:4px;&quot;&gt;- id : int&lt;br&gt; - modul : String&lt;br&gt; - datum : String&lt;br&gt;- erinnerungstage : int&lt;/p&gt;&lt;hr size=&quot;1&quot; style=&quot;border-style:solid;&quot;&gt;&lt;p style=&quot;margin:0px;margin-left:4px;&quot;&gt;+ __init__(modul: String, datum: String)&lt;br&gt; + setze_erinnerungstage(tage: int)&lt;br&gt; + get_datum() : String&lt;br&gt; + get_modul() : String&lt;br&gt; + ist_kalibriert() : boolean&lt;br&gt; + get_id() : int&lt;/p&gt;" style="verticalAlign=top;align=left;overflow=fill;html=1;whiteSpace=wrap;" vertex="1" parent="1">
          <mxGeometry x="385" y="720" width="290" height="210" as="geometry" />
        </mxCell>
        <mxCell id="OL45vC3tiFYDZ9IFijqp-14" value="" style="endArrow=open;endFill=1;endSize=12;html=1;rounded=0;exitX=0;exitY=1;exitDx=0;exitDy=0;entryX=0.5;entryY=0;entryDx=0;entryDy=0;" edge="1" parent="1" source="OL45vC3tiFYDZ9IFijqp-2" target="OL45vC3tiFYDZ9IFijqp-3">
          <mxGeometry width="160" relative="1" as="geometry">
            <mxPoint x="-50" y="280" as="sourcePoint" />
            <mxPoint x="110" y="280" as="targetPoint" />
          </mxGeometry>
        </mxCell>
        <mxCell id="OL45vC3tiFYDZ9IFijqp-15" value="" style="endArrow=open;endFill=1;endSize=12;html=1;rounded=0;exitX=0.5;exitY=1;exitDx=0;exitDy=0;entryX=0.5;entryY=0;entryDx=0;entryDy=0;" edge="1" parent="1" source="OL45vC3tiFYDZ9IFijqp-2" target="OL45vC3tiFYDZ9IFijqp-4">
          <mxGeometry width="160" relative="1" as="geometry">
            <mxPoint x="60" y="100" as="sourcePoint" />
            <mxPoint x="220" y="100" as="targetPoint" />
          </mxGeometry>
        </mxCell>
        <mxCell id="OL45vC3tiFYDZ9IFijqp-16" value="" style="endArrow=open;endFill=1;endSize=12;html=1;rounded=0;exitX=1;exitY=1;exitDx=0;exitDy=0;entryX=0.25;entryY=0;entryDx=0;entryDy=0;" edge="1" parent="1" source="OL45vC3tiFYDZ9IFijqp-2" target="OL45vC3tiFYDZ9IFijqp-9">
          <mxGeometry width="160" relative="1" as="geometry">
            <mxPoint x="240" y="110" as="sourcePoint" />
            <mxPoint x="400" y="110" as="targetPoint" />
          </mxGeometry>
        </mxCell>
        <mxCell id="OL45vC3tiFYDZ9IFijqp-25" value="&lt;font style=&quot;font-size: 16px;&quot;&gt;nutzt&lt;/font&gt;" style="text;html=1;align=center;verticalAlign=middle;resizable=0;points=[];autosize=1;strokeColor=none;fillColor=none;rotation=-30;" vertex="1" parent="1">
          <mxGeometry x="-215" y="60" width="60" height="30" as="geometry" />
        </mxCell>
        <mxCell id="OL45vC3tiFYDZ9IFijqp-26" value="&lt;font style=&quot;font-size: 16px;&quot;&gt;nutzt&lt;/font&gt;" style="text;html=1;align=center;verticalAlign=middle;resizable=0;points=[];autosize=1;strokeColor=none;fillColor=none;rotation=-90;" vertex="1" parent="1">
          <mxGeometry x="25" y="80" width="60" height="30" as="geometry" />
        </mxCell>
        <mxCell id="OL45vC3tiFYDZ9IFijqp-27" value="&lt;font style=&quot;font-size: 16px;&quot;&gt;nutzt&lt;/font&gt;" style="text;html=1;align=center;verticalAlign=middle;resizable=0;points=[];autosize=1;strokeColor=none;fillColor=none;rotation=45;" vertex="1" parent="1">
          <mxGeometry x="305" y="149" width="60" height="30" as="geometry" />
        </mxCell>
        <mxCell id="OL45vC3tiFYDZ9IFijqp-31" value="" style="endArrow=open;endFill=1;endSize=12;html=1;rounded=0;exitX=1;exitY=1;exitDx=0;exitDy=0;entryX=0;entryY=0.5;entryDx=0;entryDy=0;" edge="1" parent="1" source="OL45vC3tiFYDZ9IFijqp-3" target="OL45vC3tiFYDZ9IFijqp-9">
          <mxGeometry width="160" relative="1" as="geometry">
            <mxPoint x="-230" y="440" as="sourcePoint" />
            <mxPoint x="-70" y="440" as="targetPoint" />
            <Array as="points">
              <mxPoint x="310" y="414" />
            </Array>
          </mxGeometry>
        </mxCell>
        <mxCell id="OL45vC3tiFYDZ9IFijqp-32" value="" style="endArrow=open;endFill=1;endSize=12;html=1;rounded=0;exitX=1;exitY=1;exitDx=0;exitDy=0;entryX=0;entryY=0.25;entryDx=0;entryDy=0;" edge="1" parent="1" source="OL45vC3tiFYDZ9IFijqp-4" target="OL45vC3tiFYDZ9IFijqp-9">
          <mxGeometry width="160" relative="1" as="geometry">
            <mxPoint x="90" y="440" as="sourcePoint" />
            <mxPoint x="250" y="440" as="targetPoint" />
          </mxGeometry>
        </mxCell>
        <mxCell id="OL45vC3tiFYDZ9IFijqp-33" value="&lt;font style=&quot;font-size: 16px;&quot;&gt;nutzt&lt;/font&gt;" style="text;html=1;align=center;verticalAlign=middle;resizable=0;points=[];autosize=1;strokeColor=none;fillColor=none;rotation=15;" vertex="1" parent="1">
          <mxGeometry x="255" y="320" width="60" height="30" as="geometry" />
        </mxCell>
        <mxCell id="OL45vC3tiFYDZ9IFijqp-34" value="&lt;font style=&quot;font-size: 16px;&quot;&gt;nutzt&lt;/font&gt;" style="text;html=1;align=center;verticalAlign=middle;resizable=0;points=[];autosize=1;strokeColor=none;fillColor=none;rotation=10;" vertex="1" parent="1">
          <mxGeometry x="125" y="369" width="60" height="30" as="geometry" />
        </mxCell>
        <mxCell id="OL45vC3tiFYDZ9IFijqp-35" value="" style="endArrow=open;endFill=1;endSize=12;html=1;rounded=0;exitX=0.25;exitY=1;exitDx=0;exitDy=0;entryX=0.5;entryY=0;entryDx=0;entryDy=0;" edge="1" parent="1" source="OL45vC3tiFYDZ9IFijqp-3" target="OL45vC3tiFYDZ9IFijqp-5">
          <mxGeometry width="160" relative="1" as="geometry">
            <mxPoint x="-410" y="470" as="sourcePoint" />
            <mxPoint x="-250" y="470" as="targetPoint" />
          </mxGeometry>
        </mxCell>
        <mxCell id="OL45vC3tiFYDZ9IFijqp-36" value="" style="endArrow=open;endFill=1;endSize=12;html=1;rounded=0;exitX=0.5;exitY=1;exitDx=0;exitDy=0;entryX=0.5;entryY=0;entryDx=0;entryDy=0;" edge="1" parent="1" source="OL45vC3tiFYDZ9IFijqp-3" target="OL45vC3tiFYDZ9IFijqp-6">
          <mxGeometry width="160" relative="1" as="geometry">
            <mxPoint x="-250" y="470" as="sourcePoint" />
            <mxPoint x="-90" y="470" as="targetPoint" />
          </mxGeometry>
        </mxCell>
        <mxCell id="OL45vC3tiFYDZ9IFijqp-37" value="&lt;font style=&quot;font-size: 16px;&quot;&gt;analysiert&lt;/font&gt;" style="text;html=1;align=center;verticalAlign=middle;resizable=0;points=[];autosize=1;strokeColor=none;fillColor=none;rotation=45;" vertex="1" parent="1">
          <mxGeometry x="-170" y="510" width="90" height="30" as="geometry" />
        </mxCell>
        <mxCell id="OL45vC3tiFYDZ9IFijqp-38" value="&lt;font style=&quot;font-size: 16px;&quot;&gt;analysiert&lt;/font&gt;" style="text;html=1;align=center;verticalAlign=middle;resizable=0;points=[];autosize=1;strokeColor=none;fillColor=none;rotation=75;" vertex="1" parent="1">
          <mxGeometry x="-430" y="480" width="90" height="30" as="geometry" />
        </mxCell>
        <mxCell id="OL45vC3tiFYDZ9IFijqp-39" value="" style="endArrow=open;endFill=1;endSize=12;html=1;rounded=0;exitX=0.5;exitY=1;exitDx=0;exitDy=0;entryX=0;entryY=0;entryDx=0;entryDy=0;" edge="1" parent="1" source="OL45vC3tiFYDZ9IFijqp-4" target="OL45vC3tiFYDZ9IFijqp-10">
          <mxGeometry width="160" relative="1" as="geometry">
            <mxPoint x="90" y="480" as="sourcePoint" />
            <mxPoint x="250" y="480" as="targetPoint" />
          </mxGeometry>
        </mxCell>
        <mxCell id="OL45vC3tiFYDZ9IFijqp-40" value="&lt;font style=&quot;font-size: 16px;&quot;&gt;verwendet&lt;/font&gt;" style="text;html=1;align=center;verticalAlign=middle;resizable=0;points=[];autosize=1;strokeColor=none;fillColor=none;rotation=45;" vertex="1" parent="1">
          <mxGeometry x="180" y="494" width="100" height="30" as="geometry" />
        </mxCell>
        <mxCell id="OL45vC3tiFYDZ9IFijqp-41" value="" style="endArrow=open;endFill=1;endSize=12;html=1;rounded=0;exitX=0;exitY=1;exitDx=0;exitDy=0;entryX=1;entryY=0;entryDx=0;entryDy=0;" edge="1" parent="1" source="OL45vC3tiFYDZ9IFijqp-9" target="OL45vC3tiFYDZ9IFijqp-5">
          <mxGeometry width="160" relative="1" as="geometry">
            <mxPoint x="90" y="630" as="sourcePoint" />
            <mxPoint x="250" y="630" as="targetPoint" />
          </mxGeometry>
        </mxCell>
        <mxCell id="OL45vC3tiFYDZ9IFijqp-42" value="" style="endArrow=open;endFill=1;endSize=12;html=1;rounded=0;exitX=0.25;exitY=1;exitDx=0;exitDy=0;entryX=1;entryY=0;entryDx=0;entryDy=0;" edge="1" parent="1" source="OL45vC3tiFYDZ9IFijqp-9" target="OL45vC3tiFYDZ9IFijqp-6">
          <mxGeometry width="160" relative="1" as="geometry">
            <mxPoint x="410" y="1000" as="sourcePoint" />
            <mxPoint x="570" y="1000" as="targetPoint" />
          </mxGeometry>
        </mxCell>
        <mxCell id="OL45vC3tiFYDZ9IFijqp-43" value="" style="endArrow=open;endFill=1;endSize=12;html=1;rounded=0;exitX=0.5;exitY=1;exitDx=0;exitDy=0;entryX=0.5;entryY=0;entryDx=0;entryDy=0;" edge="1" parent="1" source="OL45vC3tiFYDZ9IFijqp-9" target="OL45vC3tiFYDZ9IFijqp-10">
          <mxGeometry width="160" relative="1" as="geometry">
            <mxPoint x="270" y="1050" as="sourcePoint" />
            <mxPoint x="430" y="1050" as="targetPoint" />
          </mxGeometry>
        </mxCell>
        <mxCell id="OL45vC3tiFYDZ9IFijqp-44" value="&lt;font style=&quot;font-size: 16px;&quot;&gt;erstellt/verwaltet&lt;/font&gt;" style="text;html=1;align=center;verticalAlign=middle;resizable=0;points=[];autosize=1;strokeColor=none;fillColor=none;rotation=-45;" vertex="1" parent="1">
          <mxGeometry x="285" y="578" width="140" height="30" as="geometry" />
        </mxCell>
        <mxCell id="OL45vC3tiFYDZ9IFijqp-45" value="&lt;font style=&quot;font-size: 16px;&quot;&gt;erstellt/verwaltet&lt;/font&gt;" style="text;html=1;align=center;verticalAlign=middle;resizable=0;points=[];autosize=1;strokeColor=none;fillColor=none;rotation=-20;" vertex="1" parent="1">
          <mxGeometry x="-5" y="590" width="140" height="30" as="geometry" />
        </mxCell>
        <mxCell id="OL45vC3tiFYDZ9IFijqp-46" value="&lt;font style=&quot;font-size: 17px;&quot;&gt;erstellt/verwaltet&lt;/font&gt;" style="text;html=1;align=center;verticalAlign=middle;resizable=0;points=[];autosize=1;strokeColor=none;fillColor=none;rotation=90;" vertex="1" parent="1">
          <mxGeometry x="470" y="608" width="150" height="30" as="geometry" />
        </mxCell>
        <mxCell id="OL45vC3tiFYDZ9IFijqp-47" value="" style="endArrow=open;endFill=1;endSize=12;html=1;rounded=0;exitX=0.5;exitY=1;exitDx=0;exitDy=0;entryX=0.5;entryY=0;entryDx=0;entryDy=0;" edge="1" parent="1" source="OL45vC3tiFYDZ9IFijqp-48" target="OL45vC3tiFYDZ9IFijqp-7">
          <mxGeometry width="160" relative="1" as="geometry">
            <mxPoint x="910" y="490" as="sourcePoint" />
            <mxPoint x="1070" y="490" as="targetPoint" />
          </mxGeometry>
        </mxCell>
        <mxCell id="OL45vC3tiFYDZ9IFijqp-49" value="" style="endArrow=open;endFill=1;endSize=12;html=1;rounded=0;exitX=0.5;exitY=1;exitDx=0;exitDy=0;entryX=0.5;entryY=0;entryDx=0;entryDy=0;" edge="1" parent="1" source="OL45vC3tiFYDZ9IFijqp-1" target="OL45vC3tiFYDZ9IFijqp-48">
          <mxGeometry width="160" relative="1" as="geometry">
            <mxPoint x="1020" y="110" as="sourcePoint" />
            <mxPoint x="1020" y="180" as="targetPoint" />
          </mxGeometry>
        </mxCell>
        <mxCell id="OL45vC3tiFYDZ9IFijqp-48" value="&lt;font style=&quot;font-size: 16px;&quot;&gt;erstellt Anzeigen&lt;/font&gt;" style="text;html=1;align=center;verticalAlign=middle;resizable=0;points=[];autosize=1;strokeColor=none;fillColor=none;" vertex="1" parent="1">
          <mxGeometry x="950" y="130" width="140" height="30" as="geometry" />
        </mxCell>
        <mxCell id="OL45vC3tiFYDZ9IFijqp-50" value="" style="endArrow=open;endFill=1;endSize=12;html=1;rounded=0;exitX=1;exitY=1;exitDx=0;exitDy=0;entryX=0;entryY=0;entryDx=0;entryDy=0;" edge="1" parent="1" source="OL45vC3tiFYDZ9IFijqp-1" target="OL45vC3tiFYDZ9IFijqp-8">
          <mxGeometry width="160" relative="1" as="geometry">
            <mxPoint x="1510" y="-30" as="sourcePoint" />
            <mxPoint x="1670" y="-30" as="targetPoint" />
          </mxGeometry>
        </mxCell>
        <mxCell id="OL45vC3tiFYDZ9IFijqp-51" value="&lt;font style=&quot;font-size: 16px;&quot;&gt;konfiguriert Anzeige&lt;/font&gt;" style="text;html=1;align=center;verticalAlign=middle;resizable=0;points=[];autosize=1;strokeColor=none;fillColor=none;rotation=30;" vertex="1" parent="1">
          <mxGeometry x="1210" y="119" width="160" height="30" as="geometry" />
        </mxCell>
        <mxCell id="OL45vC3tiFYDZ9IFijqp-52" value="" style="endArrow=open;endFill=1;endSize=12;html=1;rounded=0;exitX=0;exitY=1;exitDx=0;exitDy=0;entryX=0.75;entryY=0;entryDx=0;entryDy=0;" edge="1" parent="1" source="OL45vC3tiFYDZ9IFijqp-1" target="OL45vC3tiFYDZ9IFijqp-9">
          <mxGeometry width="160" relative="1" as="geometry">
            <mxPoint x="540" y="140" as="sourcePoint" />
            <mxPoint x="700" y="140" as="targetPoint" />
          </mxGeometry>
        </mxCell>
        <mxCell id="OL45vC3tiFYDZ9IFijqp-53" value="&lt;font style=&quot;font-size: 16px;&quot;&gt;liest/schreibt Daten&lt;/font&gt;" style="text;html=1;align=center;verticalAlign=middle;resizable=0;points=[];autosize=1;strokeColor=none;fillColor=none;rotation=-45;" vertex="1" parent="1">
          <mxGeometry x="645" y="170" width="160" height="30" as="geometry" />
        </mxCell>
        <mxCell id="OL45vC3tiFYDZ9IFijqp-54" value="" style="endArrow=open;endFill=1;endSize=12;html=1;rounded=0;exitX=0.5;exitY=1;exitDx=0;exitDy=0;entryX=1;entryY=0.75;entryDx=0;entryDy=0;" edge="1" parent="1" source="OL45vC3tiFYDZ9IFijqp-7" target="OL45vC3tiFYDZ9IFijqp-9">
          <mxGeometry width="160" relative="1" as="geometry">
            <mxPoint x="970" y="550" as="sourcePoint" />
            <mxPoint x="1130" y="550" as="targetPoint" />
          </mxGeometry>
        </mxCell>
        <mxCell id="OL45vC3tiFYDZ9IFijqp-56" value="&lt;font style=&quot;font-size: 16px;&quot;&gt;bezieht Daten&lt;/font&gt;" style="text;html=1;align=center;verticalAlign=middle;resizable=0;points=[];autosize=1;strokeColor=none;fillColor=none;rotation=-20;" vertex="1" parent="1">
          <mxGeometry x="780" y="399" width="120" height="30" as="geometry" />
        </mxCell>
      </root>
    </mxGraphModel>
  </diagram>
</mxfile>
